<svg width="35" height="35" viewBox="0 0 35 35" fill="none" xmlns="http://www.w3.org/2000/svg">
<path d="M17.498 7.00024C13.508 7.00024 10.498 10.0102 10.498 14.0002C10.498 17.9902 13.508 21.0002 17.498 21.0002C21.488 21.0002 24.498 17.9902 24.498 14.0002C24.498 10.0102 21.488 7.00024 17.498 7.00024ZM17.498 17.5002C15.433 17.5002 13.998 16.0652 13.998 14.0002C13.998 11.9352 15.433 10.5002 17.498 10.5002C19.563 10.5002 20.998 11.9352 20.998 14.0002C20.998 16.0652 19.563 17.5002 17.498 17.5002Z" fill="black"/>
<path d="M17.5 0C7.8575 0 0 7.8575 0 17.5C0 23.205 2.765 28.28 7 31.465V31.5H7.0525C9.975 33.6875 13.58 35 17.5 35C21.42 35 25.0425 33.6875 27.9475 31.5H28V31.465C32.235 28.2625 35 23.205 35 17.5C35 7.8575 27.1425 0 17.5 0ZM10.815 29.785C11.5325 27.7375 13.4575 26.25 15.75 26.25H19.25C21.5425 26.25 23.485 27.7375 24.185 29.785C22.19 30.87 19.915 31.5 17.5 31.5C15.085 31.5 12.7925 30.8875 10.815 29.785ZM27.09 27.6675C25.6725 24.7625 22.6975 22.7325 19.25 22.7325H15.75C12.3025 22.7325 9.345 24.7625 7.91 27.6675C6.51618 26.3627 5.40547 24.7853 4.64684 23.0332C3.88821 21.2811 3.49785 19.3918 3.5 17.4825C3.5 9.765 9.7825 3.4825 17.5 3.4825C25.2175 3.4825 31.5 9.765 31.5 17.4825C31.5 21.49 29.8025 25.1125 27.09 27.6675Z" fill="black"/>
</svg>
